# xmcd
#
# Track frame offsets:
#	150
#	17095
#	31785
#	54495
#	70052
#	86570
#	104925
#	118572
#	134465
#	151380
#	166070
#	188737
#	204190
#	220690
#	239040
#	252682
#
# Disc length: 3581 seconds
#
# Revision: 1
# Processed by: cddbd v1.5.1PL2 Copyright (c) Steve Scherf et al.
# Submitted via: audiograbber 1.83.01
#
DISCID=df0dfb10
DTITLE=Sound Choice - SC3242
DYEAR=1900
DGENRE=Karaoke Country
TTITLE0=Tyler England - I Drove Her To Dallas
TTITLE1=Meredith Edwards - A Rose Is A Rose
TTITLE2=Trisha Yearwood - Try Me Again
TTITLE3=Jolie and The Wanted - Boom
TTITLE4=Martina Mcbride - It'S My Time
TTITLE5=Phil Vassar - Rose Bouquet
TTITLE6=Kenny Rogers - There You Go Again
TTITLE7=Patty Loveless - The Last Thing On My Mind
TTITLE8=Tyler England - I Drove Her To Dallas
TTITLE9=Meredith Edwards - A Rose Is A Rose
TTITLE10=Trisha Yearwood - Try Me Again
TTITLE11=Jolie and The Wanted - Boom
TTITLE12=Martina Mcbride - It'S My Time
TTITLE13=Phil Vassar - Rose Bouquet
TTITLE14=Kenny Rogers - There You Go Again
TTITLE15=Patty Loveless - The Last Thing On My Mind
EXTD=Tracks 9-16 Demos
EXTT0=
EXTT1=
EXTT2=
EXTT3=
EXTT4=
EXTT5=
EXTT6=
EXTT7=
EXTT8=
EXTT9=
EXTT10=
EXTT11=
EXTT12=
EXTT13=
EXTT14=
EXTT15=
PLAYORDER=
